<?xml version="1.0" encoding="UTF-8"?>
<svg width="28px" height="32px" viewBox="0 0 28 32" version="1.1" xmlns="http://www.w3.org/2000/svg" xmlns:xlink="http://www.w3.org/1999/xlink">
    <!-- Generator: Sketch 49.3 (51167) - http://www.bohemiancoding.com/sketch -->
    <title>关于1</title>
    <desc>Created with Sketch.</desc>
    <defs></defs>
    <g id="Page-1" stroke="none" stroke-width="1" fill="none" fill-rule="evenodd" stroke-linecap="round" stroke-linejoin="round">
        <g id="Desktop" transform="translate(-698.000000, -26.000000)" stroke="#087DE9" stroke-width="2">
            <g id="nav">
                <g id="关于" transform="translate(698.000000, 27.000000)">
                    <g id="关于1" transform="translate(1.000000, 0.000000)">
                        <path d="M4,30 L0,30 L0,2 C0,0.896 0.896,0 2,0 C3.104,0 4,0.896 4,2 L4,30 Z" id="Stroke-1"></path>
                        <path d="M4,19.4080078 C7.62,18.1499879 11.376,18.8919996 14.936,20.0000171 C16.703,20.5500258 18.468,21.1280349 20.335,20.9750325 C22.35,20.8110299 24.207,19.8720151 26,18.9500005 L26,3.1997517 C24.207,4.12176627 22.35,5.0607811 20.335,5.22478369 C18.468,5.37778611 16.703,4.79977698 14.936,4.24976829 C11.376,3.14175079 7.62,2.39973906 4,3.65775894" id="Stroke-3"></path>
                    </g>
                </g>
            </g>
        </g>
    </g>
</svg>