<?xml version="1.0" encoding="UTF-8"?>
<svg width="32px" height="32px" viewBox="0 0 32 32" version="1.1" xmlns="http://www.w3.org/2000/svg" xmlns:xlink="http://www.w3.org/1999/xlink">
    <!-- Generator: Sketch 49.3 (51167) - http://www.bohemiancoding.com/sketch -->
    <title>模型</title>
    <desc>Created with Sketch.</desc>
    <defs></defs>
    <g id="Page-1" stroke="none" stroke-width="1" fill="none" fill-rule="evenodd" stroke-linecap="round" stroke-linejoin="round">
        <g id="Desktop" transform="translate(-277.000000, -26.000000)" stroke="#087DE9">
            <g id="nav">
                <g id="模型" transform="translate(274.000000, 27.000000)">
                    <g transform="translate(4.000000, 0.000000)">
                        <path d="M24,25 L6,25 C5.448,25 5,24.553 5,24 L5,6 C5,5.447 5.448,5 6,5 L24,5 C24.552,5 25,5.447 25,6 L25,24 C25,24.553 24.552,25 24,25 Z" id="Stroke-1" stroke-width="2"></path>
                        <path d="M15,0 L15,2" id="Stroke-3" stroke-width="2"></path>
                        <path d="M12,0 L12,2" id="Stroke-5" stroke-width="2"></path>
                        <path d="M9,0 L9,2" id="Stroke-7" stroke-width="2"></path>
                        <path d="M18,0 L18,2" id="Stroke-9" stroke-width="2"></path>
                        <path d="M21,0 L21,2" id="Stroke-11" stroke-width="2"></path>
                        <path d="M15,28 L15,30" id="Stroke-13" stroke-width="2"></path>
                        <path d="M12,28 L12,30" id="Stroke-15" stroke-width="2"></path>
                        <path d="M9,28 L9,30" id="Stroke-17" stroke-width="2"></path>
                        <path d="M18,28 L18,30" id="Stroke-19" stroke-width="2"></path>
                        <path d="M21,28 L21,30" id="Stroke-21" stroke-width="2"></path>
                        <path d="M30,15 L28,15" id="Stroke-23" stroke-width="2"></path>
                        <path d="M30,12 L28,12" id="Stroke-25" stroke-width="2"></path>
                        <path d="M30,9 L28,9" id="Stroke-27" stroke-width="2"></path>
                        <path d="M30,18 L28,18" id="Stroke-29" stroke-width="2"></path>
                        <path d="M30,21 L28,21" id="Stroke-31" stroke-width="2"></path>
                        <path d="M0,15 L2,15" id="Stroke-33" stroke-width="2"></path>
                        <path d="M2,12 L0,12" id="Stroke-35" stroke-width="2"></path>
                        <path d="M2,9 L0,9" id="Stroke-37" stroke-width="2"></path>
                        <path d="M2,18 L0,18" id="Stroke-39" stroke-width="2"></path>
                        <path d="M2,21 L0,21" id="Stroke-41" stroke-width="2"></path>
                        <path d="M8,7.5 C8,7.776 7.776,8 7.5,8 C7.224,8 7,7.776 7,7.5 C7,7.224 7.224,7 7.5,7 C7.776,7 8,7.224 8,7.5 Z" id="Stroke-43"></path>
                        <path d="M23,7.5 C23,7.776 22.776,8 22.5,8 C22.224,8 22,7.776 22,7.5 C22,7.224 22.224,7 22.5,7 C22.776,7 23,7.224 23,7.5 Z" id="Stroke-45"></path>
                        <path d="M23,22.5 C23,22.776 22.776,23 22.5,23 C22.224,23 22,22.776 22,22.5 C22,22.224 22.224,22 22.5,22 C22.776,22 23,22.224 23,22.5 Z" id="Stroke-47"></path>
                        <path d="M8,22.5 C8,22.776 7.776,23 7.5,23 C7.224,23 7,22.776 7,22.5 C7,22.224 7.224,22 7.5,22 C7.776,22 8,22.224 8,22.5 Z" id="Stroke-49"></path>
                    </g>
                </g>
            </g>
        </g>
    </g>
</svg>