<?xml version="1.0" encoding="UTF-8"?>
<svg width="39px" height="32px" viewBox="0 0 39 32" version="1.1" xmlns="http://www.w3.org/2000/svg" xmlns:xlink="http://www.w3.org/1999/xlink">
    <!-- Generator: Sketch 49.3 (51167) - http://www.bohemiancoding.com/sketch -->
    <title>参数</title>
    <desc>Created with Sketch.</desc>
    <defs></defs>
    <g id="Page-1" stroke="none" stroke-width="1" fill="none" fill-rule="evenodd" stroke-linecap="round" stroke-linejoin="round">
        <g id="Desktop" transform="translate(-385.000000, -26.000000)" stroke="#087DE9">
            <g id="nav">
                <g id="参数" transform="translate(383.000000, 27.000000)">
                    <g transform="translate(3.000000, 0.000000)">
                        <polygon id="Stroke-3" stroke-width="2" points="36.3333333 30 13 30 13 0"></polygon>
                        <polygon id="Stroke-5" points="28 26 20 26 20 16"></polygon>
                        <path d="M16,26 L17,26" id="Stroke-21"></path>
                        <path d="M16,22 L17,22" id="Stroke-22"></path>
                        <path d="M16,19 L17,19" id="Stroke-23"></path>
                        <path d="M16,16 L17,16" id="Stroke-24"></path>
                        <path d="M16,12 L17,12" id="Stroke-25"></path>
                        <path d="M16,9 L17,9" id="Stroke-26"></path>
                        <g id="Group-21">
                            <path d="M0.100736154,7.133 L4.05036808,0 L8,7.133 L8,7.1 L7.89928439,28.009 C7.89434735,29.11 7.01160461,30 5.92446842,30 L1.9748365,30 C0.880788459,30 -0.00491649997,29.098 2.05399378e-05,27.99 L0.100736154,7.1" id="Stroke-11" stroke-width="2"></path>
                            <path d="M2,5 C3.105,6.333 4.895,6.333 6,5" id="Stroke-13"></path>
                            <path d="M6,21 L6,10" id="Stroke-15"></path>
                            <path d="M3,21 L3,10" id="Stroke-17"></path>
                            <path d="M1,25 L8,25" id="Stroke-19" stroke-width="2"></path>
                        </g>
                    </g>
                </g>
            </g>
        </g>
    </g>
</svg>