<?xml version="1.0" encoding="UTF-8"?>
<svg width="32px" height="32px" viewBox="0 0 32 32" version="1.1" xmlns="http://www.w3.org/2000/svg" xmlns:xlink="http://www.w3.org/1999/xlink">
    <!-- Generator: Sketch 49.3 (51167) - http://www.bohemiancoding.com/sketch -->
    <title>首选项1</title>
    <desc>Created with Sketch.</desc>
    <defs></defs>
    <g id="Page-1" stroke="none" stroke-width="1" fill="none" fill-rule="evenodd">
        <g id="Desktop" transform="translate(-599.000000, -26.000000)" stroke="#087DE9" stroke-width="2">
            <g id="nav">
                <g id="首选项" transform="translate(600.000000, 27.000000)">
                    <path d="M12.1084008,20.2156439 C8.9418551,18.9039697 7.43875451,15.2741078 8.74944167,12.1076766 C10.0611633,8.94227981 13.6911564,7.43819912 16.8577021,8.74987334 C20.0232133,10.0615476 21.5273484,13.690375 20.2156268,16.8578406 C18.9039051,20.0232374 15.2749465,21.5273181 12.1084008,20.2156439 Z M29.7028623,18.4852762 L26.977114,17.3570881 C27.1774736,15.6931982 27.1078299,14.13752 26.8163977,12.7093389 L29.7028623,11.5147238 C29.9482225,11.411869 30.0650097,11.1311613 29.9632227,10.8858098 L28.48999,7.32874953 C28.388203,7.08339809 28.1064138,6.96661508 27.8610536,7.06839844 L24.9713746,8.26622777 C24.0949351,6.96661508 22.9881355,5.87806893 21.733477,5.03166001 L22.9313491,2.13887003 C23.0331361,1.89351858 22.9163489,1.61173941 22.6709887,1.50995606 L19.1148729,0.0367759769 C18.8684412,-0.0650073742 18.5877234,0.0517756287 18.4859364,0.297127075 L17.2869929,3.19098846 C15.8009029,2.90170946 14.2494549,2.88778121 12.7119357,3.18884565 L11.5140636,0.297127075 C11.4122766,0.0517756287 11.1315588,-0.0650073742 10.8851271,0.0367759769 L7.32901128,1.50995606 C7.08257963,1.61173941 6.9668639,1.89351858 7.06865088,2.13887003 L8.26330867,5.02523159 C7.04829348,5.82878436 5.89863626,6.87983139 4.86362333,8.19658653 L2.13894642,7.06839844 C1.89251477,6.96661508 1.61179697,7.08339809 1.51000999,7.32874953 L0.0367772904,10.8858098 C-0.0650096959,11.1311613 0.0517774778,11.411869 0.297137687,11.5147238 L3.02288604,12.6429119 C2.82145495,14.3068018 2.89217012,15.86248 3.18360233,17.2906611 L0.297137687,18.4852762 C0.0517774778,18.588131 -0.0650096959,18.8688387 0.0367772904,19.1141902 L1.51000999,22.6712505 C1.61179697,22.9166019 1.89251477,23.0333849 2.13894642,22.9316016 L5.02862539,21.7337722 C5.90506491,23.0333849 7.01079302,24.1208597 8.26652299,24.9672686 L7.06865088,27.86113 C6.9668639,28.1064814 7.08257963,28.3882606 7.32901128,28.4900439 L10.8851271,29.963224 C11.1315588,30.0650074 11.4122766,29.9482244 11.5140636,29.7028729 L12.7130071,26.8079401 C14.1990971,27.0982905 15.7505451,27.1122188 17.2891358,26.8111543 L18.4859364,29.7028729 C18.5877234,29.9482244 18.8684412,30.0650074 19.1148729,29.963224 L22.6709887,28.4900439 C22.9163489,28.3882606 23.0331361,28.1064814 22.9313491,27.86113 L21.7366913,24.9747684 C22.9517065,24.1712156 24.1013637,23.1201686 25.1353052,21.8034135 L27.8610536,22.9316016 C28.1064138,23.0333849 28.388203,22.9166019 28.48999,22.6712505 L29.9632227,19.1141902 C30.0650097,18.8688387 29.9482225,18.588131 29.7028623,18.4852762 Z" id="首选项1"></path>
                </g>
            </g>
        </g>
    </g>
</svg>